<svg width="25" height="20" viewBox="0 0 25 20" fill="none" xmlns="http://www.w3.org/2000/svg">
<path d="M10.252 13.8458C5.89312 13.8458 5.89312 19.9994 10.252 19.9994H18.8094L14.7138 13.8458H10.252Z" fill="#A3B4F5"/>
<path d="M10.2521 13.8457C5.89326 13.8457 5.89326 19.9994 10.2521 19.9994C2.46387 20.0956 1.0216 6.92285 10.3183 6.92285H17.7519L22.0787 13.7496L10.2222 13.8457H10.2521Z" fill="#4C6DF5"/>
<path d="M9.92915 19.9943C10.0485 19.9978 10.1688 19.9995 10.2902 19.9995C10.1683 20.001 10.0479 19.9992 9.92915 19.9943C-2.80718 19.6299 -3.84802 0 10.0598 0H19.713L24.0398 6.82674L10.3564 6.9229C1.20521 6.9229 2.45944 19.6864 9.92915 19.9943Z" fill="#032EF4"/>
</svg>
